<svg width="20" height="20" viewBox="0 0 20 20" fill="none" xmlns="http://www.w3.org/2000/svg">
<path id="bell" d="M19.7978 14.8085C19.1955 13.8529 18.3007 11.1579 18.3007 7.65246C18.3007 5.6229 17.4262 3.67647 15.8698 2.24136C14.3133 0.80624 12.2023 0 10.0011 0C7.79987 0 5.68884 0.80624 4.13236 2.24136C2.57589 3.67647 1.70147 5.6229 1.70147 7.65246C1.70147 11.1589 0.805538 13.8529 0.203285 14.8085C0.0711461 15.0171 0.00102976 15.2542 1.12565e-05 15.4958C-0.00100725 15.7374 0.0671083 15.975 0.197484 16.1846C0.32786 16.3941 0.515884 16.5683 0.74258 16.6894C0.969277 16.8106 1.22663 16.8745 1.48866 16.8747H6.00875C6.16381 17.7473 6.65023 18.5407 7.38115 19.1132C8.11207 19.6857 9.03989 20 9.99893 20C10.958 20 11.8858 19.6857 12.6167 19.1132C13.3476 18.5407 13.8341 17.7473 13.9891 16.8747H18.5135C18.7753 16.8742 19.0324 16.81 19.2588 16.6887C19.4852 16.5674 19.6729 16.3932 19.803 16.1837C19.9332 15.9742 20.0011 15.7368 20 15.4953C19.9989 15.2539 19.9288 15.017 19.7967 14.8085H19.7978ZM10.0011 18.8368C9.37849 18.8367 8.77419 18.6429 8.28586 18.2868C7.79754 17.9307 7.45375 17.4332 7.31008 16.8747H12.692C12.5484 17.4332 12.2046 17.9307 11.7163 18.2868C11.2279 18.6429 10.6236 18.8367 10.0011 18.8368ZM18.6954 15.5993C18.6779 15.6293 18.6518 15.6543 18.6199 15.6716C18.588 15.6889 18.5515 15.6978 18.5145 15.6974H1.48866C1.45166 15.6978 1.41522 15.6889 1.38333 15.6716C1.35143 15.6543 1.32529 15.6293 1.30777 15.5993C1.28909 15.5694 1.27926 15.5356 1.27926 15.5011C1.27926 15.4667 1.28909 15.4329 1.30777 15.403C2.11326 14.1276 2.97833 11.154 2.97833 7.65246C2.97833 5.93514 3.71822 4.28816 5.03524 3.07383C6.35226 1.8595 8.13852 1.1773 10.0011 1.1773C11.8636 1.1773 13.6499 1.8595 14.9669 3.07383C16.2839 4.28816 17.0238 5.93514 17.0238 7.65246C17.0238 11.153 17.8899 14.1227 18.6954 15.403C18.7141 15.4329 18.7239 15.4667 18.7239 15.5011C18.7239 15.5356 18.7141 15.5694 18.6954 15.5993Z" fill="black"/>
</svg>
