<svg width="20" height="20" viewBox="0 0 20 20" fill="none" xmlns="http://www.w3.org/2000/svg">
<g id="twitter">
<path id="Vector" d="M19 6V14C19 15.3261 18.4732 16.5979 17.5355 17.5355C16.5979 18.4732 15.3261 19 14 19H6C4.67392 19 3.40215 18.4732 2.46447 17.5355C1.52678 16.5979 1 15.3261 1 14V6C1 4.67392 1.52678 3.40215 2.46447 2.46447C3.40215 1.52678 4.67392 1 6 1H14C15.3261 1 16.5979 1.52678 17.5355 2.46447C18.4732 3.40215 19 4.67392 19 6Z" stroke="black" stroke-width="1.5" stroke-linecap="round" stroke-linejoin="round"/>
<path id="Vector_2" d="M7.65214 12.5185C7.04937 12.8834 6.36209 13.0898 5.65475 13.1162C5.8393 13.2081 6.0285 13.2896 6.22143 13.3603M7.65214 12.5185L14.6455 7.39751C14.4445 7.61872 14.2194 7.81752 13.974 7.99001L13.981 8.25201M7.65214 12.5185C7.77725 12.5409 7.90454 12.5532 8.03282 12.555L8.037 12.255L7.85388 12.0174C7.76987 12.0821 7.68348 12.1432 7.59497 12.2004M7.65214 12.5185L7.59497 12.2004M6.22143 13.3603C6.01322 13.3944 5.80198 13.4139 5.58923 13.4181C6.38341 13.8011 7.25654 14.0013 8.144 14C11.918 14 13.981 10.922 13.981 8.25201M6.22143 13.3603C6.94545 13.2415 7.63295 12.9451 8.22012 12.4926L8.90219 11.967L8.04118 11.955C7.67797 11.95 7.32534 11.8319 7.03226 11.6173C6.86892 11.4977 6.72859 11.3514 6.61654 11.1857M6.22143 13.3603C6.83425 13.5849 7.48475 13.7009 8.14358 13.7L8.144 13.7C11.72 13.7 13.679 10.7915 13.681 8.25597M13.981 8.25201L13.6811 8.26002L13.681 8.25597M13.981 8.25201H13.681C13.681 8.25333 13.681 8.25465 13.681 8.25597M7.59497 12.2004C7.32943 12.1378 7.07757 12.0223 6.85502 11.8594C6.60693 11.6777 6.40415 11.4435 6.26014 11.1751C6.37866 11.1875 6.49778 11.191 6.61654 11.1857M7.59497 12.2004L5.43007 9.16135C5.48923 9.51312 5.64044 9.84512 5.87092 10.1224C6.02687 10.31 6.21411 10.4665 6.42269 10.586C6.60697 10.5948 6.79201 10.5754 6.97131 10.528L7.048 10.818L6.99126 11.1126C6.8155 11.0787 6.64545 11.025 6.48408 10.9531C6.52231 11.0341 6.56661 11.1118 6.61654 11.1857M6.61654 11.1857C6.78768 11.178 6.95805 11.1521 7.12469 11.108L7.10474 10.5234C6.71187 10.4478 6.35738 10.2382 6.10161 9.93058C5.94263 9.73934 5.8279 9.51751 5.76321 9.28092C5.945 9.33124 6.13276 9.35991 6.3226 9.36586L7.38639 9.39922L6.49662 8.81521C6.02675 8.50681 5.719 7.97884 5.719 7.38501L5.719 7.3846C5.71878 7.2256 5.7411 7.06811 5.78472 6.91669C6.26759 7.41465 6.83201 7.82823 7.45469 8.13899C8.21997 8.5209 9.05645 8.7391 9.91077 8.77967L10.3086 8.79856L10.2169 8.41097C10.1874 8.28598 10.172 8.15516 10.172 8.02001C10.172 7.0749 10.9514 6.30001 11.923 6.30001L11.9239 6.30001C12.163 6.29925 12.3997 6.34719 12.6195 6.44091C12.8394 6.53462 13.0379 6.67215 13.2029 6.8451L13.3161 6.9637L13.477 6.93254C13.6296 6.90301 13.7802 6.86558 13.9284 6.82046C13.8484 6.88985 13.7618 6.95223 13.6696 7.00659L13.8565 7.56302C13.9303 7.55448 14.0035 7.54412 14.0761 7.53198C13.988 7.60692 13.8964 7.67786 13.8015 7.74456L13.6698 7.83711L13.6741 7.99802L13.681 8.25597" stroke="black" stroke-width="0.6"/>
</g>
</svg>
